# Blender v2.78 (sub 0) OBJ File: 'JukeboxLP.blend'
# www.blender.org
mtllib Front.mtl
o Front_Jukebox_109967-geom.008
v 3.991481 10.911563 -3.000002
v 3.966283 11.196572 -3.000002
v 3.867952 11.749309 -3.000001
v 3.709265 12.275144 -3.000001
v 3.494415 12.769429 -3.000001
v 3.227659 13.227442 -3.000001
v 2.913236 13.644554 -3.000001
v 2.555381 14.016062 -3.000001
v 2.158330 14.337297 -3.000001
v 1.726301 14.603580 -3.000001
v 1.263549 14.810267 -3.000001
v 0.774291 14.952672 -3.000001
v 0.262784 15.026102 -3.000001
v -0.262786 15.026102 -3.000001
v -0.774293 14.952672 -3.000001
v -1.263551 14.810267 -3.000001
v -1.726303 14.603580 -3.000001
v -2.158333 14.337297 -3.000001
v -2.555383 14.016062 -3.000001
v -2.913238 13.644554 -3.000001
v -3.227661 13.227442 -3.000001
v -3.494416 12.769429 -3.000001
v -3.709266 12.275144 -3.000001
v -3.867954 11.749309 -3.000001
v -3.966285 11.196572 -3.000002
v -3.991483 10.911563 -3.000002
v 4.000021 0.026103 -3.000003
v -3.999978 0.026103 -3.000003
vt 0.8642 0.0592
vt 0.1358 0.0592
vt 0.1806 0.0433
vt 0.0011 0.1764
vt 0.0042 0.1642
vt 0.0632 0.0968
vt 0.0165 0.1405
vt 0.0363 0.1180
vt 0.0965 0.0771
vt 0.9989 0.1764
vt 0.2302 0.0295
vt 0.2842 0.0181
vt 0.4671 0.0000
vt 0.3421 0.0093
vt 0.4032 0.0031
vt 0.5328 0.0000
vt 0.8194 0.0433
vt 0.5968 0.0031
vt 0.6579 0.0093
vt 0.7158 0.0181
vt 0.7698 0.0295
vt 0.9035 0.0771
vt 0.9368 0.0968
vt 0.9637 0.1180
vt 0.9835 0.1405
vt 0.9958 0.1642
vt 1.0000 0.6432
vt 0.0000 0.6432
vn 0.0000 0.0000 -1.0000
usemtl Front
s off
f 7/1/1 20/2/1 19/3/1
f 26/4/1 25/5/1 22/6/1
f 24/7/1 23/8/1 25/5/1
f 22/6/1 21/9/1 26/4/1
f 20/2/1 7/1/1 1/10/1
f 18/11/1 17/12/1 14/13/1
f 16/14/1 15/15/1 17/12/1
f 14/13/1 13/16/1 8/17/1
f 12/18/1 11/19/1 10/20/1
f 10/20/1 9/21/1 13/16/1
f 8/17/1 19/3/1 14/13/1
f 6/22/1 5/23/1 1/10/1
f 4/24/1 3/25/1 2/26/1
f 2/26/1 1/10/1 5/23/1
f 27/27/1 28/28/1 1/10/1
f 25/5/1 23/8/1 22/6/1
f 21/9/1 20/2/1 26/4/1
f 17/12/1 15/15/1 14/13/1
f 13/16/1 12/18/1 10/20/1
f 9/21/1 8/17/1 13/16/1
f 5/23/1 4/24/1 2/26/1
f 1/10/1 28/28/1 26/4/1
f 26/4/1 20/2/1 1/10/1
f 18/11/1 14/13/1 19/3/1
f 7/1/1 19/3/1 8/17/1
f 1/10/1 7/1/1 6/22/1
